<?xml version="1.0" encoding="utf-8"?>
<!-- Generator: Adobe Illustrator 27.0.1, SVG Export Plug-In . SVG Version: 6.00 Build 0)  -->
<svg version="1.1" id="Layer_1" xmlns="http://www.w3.org/2000/svg" xmlns:xlink="http://www.w3.org/1999/xlink" x="0px" y="0px"
	 viewBox="0 0 879.94 317.29" style="enable-background:new 0 0 879.94 317.29;" xml:space="preserve">
<style type="text/css">
	.st0{stroke:#FFFFFF;stroke-miterlimit:10;}
	.st1{fill:none;stroke:#2F528F;stroke-miterlimit:8;}
	.st2{fill-rule:evenodd;clip-rule:evenodd;fill:#4472C4;}
</style>
<g>
	<defs>
		<rect id="SVGID_1_" x="-219.35" y="-65.64" width="959.76" height="540"/>
	</defs>
	<clipPath id="SVGID_00000029041079244742075430000015590003205152380818_">
		<use xlink:href="#SVGID_1_"  style="overflow:visible;"/>
	</clipPath>
</g>
<path class="st0" d="M242.22,47.85c-6.81,13.59-13.21,15.09-15.86,15.27c-2.74,0.19-8.02-2.49-18.58-7.82
	c-2.66-1.34-6.16-3.2-11.49-5.33c-1.24-0.5-3.6-1.42-6.56-2.4c-7.62-2.53-14.13-3.8-17.88-4.43c-2.39-0.4-10.21-1.63-19.71-1.62
	c-23.87,0.02-42.74,7.83-45.54,9.02c-5,2.13-18.95,8.49-33.16,21.69C44.1,99.47,34.6,136.34,34.6,157.43c0,15.16,3.9,29.7,3.9,29.7
	c1.45,5.41,3.13,9.88,3.51,10.89c2.18,5.74,4.53,10.51,6.56,14.21l4.28-2.55c5.72-2.79,12.62-4.42,20.05-4.42
	c2.48,0,4.89,0.18,7.23,0.53l2.81,0.63c-0.12-35.46-0.24-70.92-0.36-106.38l0-21.11c60.88,1.76,108.06,1.53,131.21,0.13
	c6.53-0.39,18.03-1.3,24.45-9.64C243.81,62.18,242.99,52.64,242.22,47.85z"/>
<path class="st0" d="M256.87,105.07l0.13-0.08c2.53-1.82,13.17-9.91,15.37-24.06c2.3-14.82-5.58-30.31-19.98-38.89
	c8.4,13.61,9.66,29.24,3.18,39.72c-1.61,2.61-5.61,7.98-12.41,11.84c-4.28,2.43-8.17,3.4-12.57,4.22
	c-6.96,1.3-17.92,2.74-32.53,2.25c-0.08,6.4-0.16,12.79-0.24,19.19c-0.19,35.94-0.39,71.88-0.58,107.82
	c0.04,2.31-0.19,5.36-1.36,8.67c-4.78,13.46-21.6,21.07-35.69,20.87c-16.77-0.25-36.43-12.17-36.43-26.13
	c0-14.43,16.31-26.13,36.43-26.13c2.52,0,4.97,0.18,7.34,0.53l3.92,0.87V100.04l-62.21,0c-0.21,44.01-0.42,88.02-0.63,132.03
	c-0.04,1.36-0.24,3.31-0.96,5.52c-0.69,2.09-2,4.82-5.49,8.51c-2.95,3.12-7.46,7.88-15.02,10.49c-7.67,2.65-14.13,1.58-19.3,0.72
	c-9.57-1.58-16.94-5.53-21.81-8.85c-1.71-1.62-3.42-3.23-5.12-4.85c0.34,0.61,1.2,2.08,2.47,3.8c11.76,15.86,33.73,18.5,39.78,19.22
	c5.03,0.6,10.15,0.5,10.15,0.5c3.3-0.06,6.52-0.34,9.6-0.82l5.68-1.3l8.63,3.11c8.29,2.48,20.34,5.17,34.95,5.21
	c10.54,0.03,44.27-0.36,74.68-24.56c42.29-33.65,42.89-85.31,42.86-91.35C269.56,133.7,262.01,115.28,256.87,105.07z"/>
<path class="st1" d="M242.39-73.61"/>
<path class="st1" d="M343.84-88.56"/>
<path class="st2" d="M333.89,118.64"/>
<path class="st1" d="M225.19,274.9"/>
<g>
	<path d="M339.49,117.01h-12.33v32.59h-22.79V57.47h37.2c11.21,0,19.97,2.42,26.29,7.27c6.32,4.85,9.48,11.69,9.48,20.54
		c0,6.41-1.33,11.72-3.99,15.93c-2.66,4.21-6.83,7.63-12.5,10.24l19.73,37.2v0.95h-24.41L339.49,117.01z M327.16,99.93h14.41
		c4.33,0,7.58-1.11,9.77-3.33c2.18-2.22,3.28-5.32,3.28-9.29c0-3.97-1.1-7.09-3.31-9.36s-5.45-3.39-9.74-3.39h-14.41V99.93z"/>
	<path d="M444.79,132.39h-31.22l-5.45,17.21h-24.34l34.66-92.13h21.42l34.92,92.13H450.3L444.79,132.39z M419.01,115.24h20.32
		l-10.19-31.96L419.01,115.24z"/>
	<path d="M506.52,97.46l17.4-39.99h24.6l-30.45,59.04v33.09h-23.11V116.5l-30.38-59.04h24.47L506.52,97.46z"/>
	<path d="M353.13,236.73c0-3.25-1.18-5.78-3.54-7.59c-2.36-1.81-6.5-3.69-12.43-5.63c-5.93-1.94-10.78-3.82-14.54-5.63
		c-12.25-5.86-18.37-13.92-18.37-24.17c0-5.1,1.53-9.61,4.58-13.51c3.05-3.9,7.37-6.94,12.95-9.11c5.58-2.17,11.86-3.26,18.83-3.26
		c6.79,0,12.89,1.18,18.27,3.54c5.39,2.36,9.58,5.73,12.56,10.09c2.99,4.37,4.48,9.35,4.48,14.96h-22.72c0-3.75-1.18-6.66-3.54-8.73
		c-2.36-2.07-5.55-3.1-9.58-3.1c-4.07,0-7.28,0.88-9.64,2.63c-2.36,1.75-3.54,3.98-3.54,6.68c0,2.36,1.3,4.5,3.89,6.42
		c2.6,1.92,7.16,3.9,13.7,5.95c6.53,2.05,11.9,4.25,16.1,6.61c10.21,5.74,15.32,13.65,15.32,23.73c0,8.06-3.12,14.39-9.35,18.98
		c-6.23,4.6-14.78,6.9-25.64,6.9c-7.66,0-14.6-1.34-20.8-4.02c-6.21-2.68-10.88-6.35-14.02-11.01c-3.14-4.66-4.71-10.03-4.71-16.1
		h22.85c0,4.94,1.31,8.57,3.93,10.92c2.62,2.34,6.87,3.51,12.76,3.51c3.77,0,6.74-0.79,8.93-2.37
		C352.03,241.82,353.13,239.6,353.13,236.73z"/>
	<path d="M461.79,186.24h-28.37v74.98h-22.79v-74.98h-27.85v-17.15h79V186.24z"/>
	<path d="M545.53,169.09v60.3c0,6.83-1.49,12.75-4.48,17.75c-2.99,5-7.27,8.81-12.85,11.42c-5.58,2.62-12.18,3.92-19.8,3.92
		c-11.51,0-20.58-2.91-27.2-8.73c-6.62-5.82-10-13.79-10.13-23.92v-60.75h22.92v61.19c0.26,10.08,5.06,15.12,14.41,15.12
		c4.72,0,8.29-1.27,10.71-3.8s3.64-6.64,3.64-12.34v-60.18H545.53z"/>
	<path d="M559.75,261.22v-92.13h30.45c8.35,0,15.86,1.85,22.53,5.54c6.66,3.69,11.87,8.9,15.61,15.63
		c3.74,6.73,5.64,14.27,5.68,22.62v4.24c0,8.44-1.83,16-5.49,22.68c-3.66,6.69-8.81,11.92-15.45,15.69
		c-6.64,3.78-14.05,5.68-22.23,5.73H559.75z M582.53,186.24v57.9h7.92c6.53,0,11.55-2.27,15.06-6.8c3.51-4.53,5.26-11.27,5.26-20.22
		v-3.99c0-8.9-1.75-15.61-5.26-20.12c-3.5-4.51-8.61-6.77-15.32-6.77H582.53z"/>
	<path d="M669.98,261.22h-22.72v-92.13h22.72V261.22z"/>
	<path d="M765.85,217.05c0,8.99-1.71,16.94-5.13,23.86c-3.42,6.92-8.28,12.24-14.57,15.98c-6.3,3.73-13.47,5.6-21.52,5.6
		c-8.05,0-15.19-1.8-21.42-5.41c-6.23-3.61-11.09-8.76-14.57-15.47c-3.48-6.71-5.31-14.41-5.49-23.1v-5.19
		c0-9.03,1.7-16.99,5.1-23.89c3.4-6.9,8.27-12.22,14.61-15.98c6.34-3.75,13.56-5.63,21.65-5.63c8.01,0,15.15,1.86,21.42,5.57
		c6.27,3.71,11.15,9,14.64,15.85c3.48,6.86,5.25,14.71,5.29,23.57V217.05z M742.68,213.19c0-9.15-1.57-16.1-4.71-20.85
		c-3.14-4.75-7.63-7.12-13.47-7.12c-11.42,0-17.46,8.35-18.11,25.06l-0.07,6.77c0,9.03,1.54,15.97,4.61,20.82
		c3.07,4.85,7.64,7.28,13.7,7.28c5.75,0,10.19-2.38,13.31-7.15c3.12-4.77,4.69-11.62,4.74-20.57V213.19z"/>
	<path d="M826.36,236.73c0-3.25-1.18-5.78-3.54-7.59c-2.36-1.81-6.5-3.69-12.43-5.63c-5.93-1.94-10.78-3.82-14.54-5.63
		c-12.25-5.86-18.37-13.92-18.37-24.17c0-5.1,1.53-9.61,4.58-13.51c3.05-3.9,7.37-6.94,12.95-9.11c5.58-2.17,11.86-3.26,18.83-3.26
		c6.79,0,12.89,1.18,18.27,3.54c5.39,2.36,9.58,5.73,12.56,10.09c2.99,4.37,4.48,9.35,4.48,14.96h-22.72c0-3.75-1.18-6.66-3.54-8.73
		c-2.36-2.07-5.55-3.1-9.58-3.1c-4.07,0-7.28,0.88-9.64,2.63c-2.36,1.75-3.54,3.98-3.54,6.68c0,2.36,1.3,4.5,3.89,6.42
		c2.6,1.92,7.16,3.9,13.7,5.95c6.53,2.05,11.9,4.25,16.1,6.61c10.21,5.74,15.32,13.65,15.32,23.73c0,8.06-3.12,14.39-9.35,18.98
		c-6.23,4.6-14.78,6.9-25.64,6.9c-7.66,0-14.6-1.34-20.8-4.02c-6.21-2.68-10.88-6.35-14.02-11.01c-3.14-4.66-4.71-10.03-4.71-16.1
		h22.85c0,4.94,1.31,8.57,3.93,10.92c2.62,2.34,6.87,3.51,12.76,3.51c3.77,0,6.74-0.79,8.93-2.37
		C825.26,241.82,826.36,239.6,826.36,236.73z"/>
</g>
</svg>
